<!DOCTYPE svg PUBLIC "-//W3C//DTD SVG 1.1//EN" "http://www.w3.org/Graphics/SVG/1.1/DTD/svg11.dtd">
<!-- Uploaded to: SVG Repo, www.svgrepo.com, Transformed by: SVG Repo Mixer Tools -->
<svg fill="#0363D7" height="163px" width="163px" version="1.1" id="Layer_1" xmlns="http://www.w3.org/2000/svg" xmlns:xlink="http://www.w3.org/1999/xlink" viewBox="-45.9 -45.9 550.80 550.80" xml:space="preserve" stroke="#0363D7">
<g id="SVGRepo_bgCarrier" stroke-width="0" transform="translate(32.129999999999995,32.129999999999995), scale(0.86)">
<rect x="-45.9" y="-45.9" width="550.80" height="550.80" rx="275.4" fill="#ffffff" strokewidth="0"/>
</g>
<g id="SVGRepo_tracerCarrier" stroke-linecap="round" stroke-linejoin="round" stroke="#ffffff" stroke-width="27.54"> <g> <g> <path d="M229.5,0C102.751,0,0,102.751,0,229.5S102.751,459,229.5,459S459,356.249,459,229.5S356.249,0,229.5,0z M310.292,239.651 l-111.764,76.084c-3.761,2.56-8.63,2.831-12.652,0.704c-4.022-2.128-6.538-6.305-6.538-10.855V153.416 c0-4.55,2.516-8.727,6.538-10.855c4.022-2.127,8.891-1.857,12.652,0.704l111.764,76.084c3.359,2.287,5.37,6.087,5.37,10.151 C315.662,233.564,313.652,237.364,310.292,239.651z"/> </g> </g> </g>
<g id="SVGRepo_iconCarrier"> <g> <g> <path d="M229.5,0C102.751,0,0,102.751,0,229.5S102.751,459,229.5,459S459,356.249,459,229.5S356.249,0,229.5,0z M310.292,239.651 l-111.764,76.084c-3.761,2.56-8.63,2.831-12.652,0.704c-4.022-2.128-6.538-6.305-6.538-10.855V153.416 c0-4.55,2.516-8.727,6.538-10.855c4.022-2.127,8.891-1.857,12.652,0.704l111.764,76.084c3.359,2.287,5.37,6.087,5.37,10.151 C315.662,233.564,313.652,237.364,310.292,239.651z"/> </g> </g> </g>
</svg>